<svg xmlns="http://www.w3.org/2000/svg" viewBox="0 0 64 64">
  <rect width="64" height="64" rx="14" fill="#f5ecd6"/>
  <g fill="#c8693a">
    <path d="M32 6 L34 16 L30 16 Z"/>
    <path d="M32 58 L30 48 L34 48 Z"/>
    <path d="M6 32 L16 30 L16 34 Z"/>
    <path d="M58 32 L48 30 L48 34 Z"/>
    <path d="M13 13 L21 19 L19 21 Z"/>
    <path d="M51 51 L45 43 L43 45 Z"/>
    <path d="M51 13 L45 21 L43 19 Z"/>
    <path d="M13 51 L19 45 L21 43 Z"/>
  </g>
  <circle cx="32" cy="32" r="13" fill="#d4a23f"/>
  <circle cx="32" cy="29" r="2.5" fill="#fbf6e8"/>
  <path d="M32 32c-2.5 0-4 1.5-4 4v1.5l-2.5 4h1.5l1.5-3h7l1.5 3h1.5l-2.5-4v-1.5c0-2.5-1.5-4-4-4z" fill="#fbf6e8"/>
</svg>
